<?xml version="1.0" encoding="UTF-8" standalone="no"?>
<!-- Created with Inkscape (http://www.inkscape.org/) -->

<svg
   width="193.28345mm"
   height="189.61136mm"
   viewBox="0 0 193.28345 189.61136"
   version="1.1"
   id="svg1"
   xml:space="preserve"
   xmlns:inkscape="http://www.inkscape.org/namespaces/inkscape"
   xmlns:sodipodi="http://sodipodi.sourceforge.net/DTD/sodipodi-0.dtd"
   xmlns="http://www.w3.org/2000/svg"
   xmlns:svg="http://www.w3.org/2000/svg"><sodipodi:namedview
     id="namedview1"
     pagecolor="#ffffff"
     bordercolor="#000000"
     borderopacity="0.25"
     inkscape:showpageshadow="2"
     inkscape:pageopacity="0.0"
     inkscape:pagecheckerboard="0"
     inkscape:deskcolor="#d1d1d1"
     inkscape:document-units="mm" /><defs
     id="defs1" /><g
     inkscape:label="Layer 1"
     inkscape:groupmode="layer"
     id="layer1"
     transform="translate(-8.3582737,-59.866678)"><path
       style="fill:#ad49e1;fill-opacity:1"
       d="m 98.529606,249.34386 c -6.2075,-0.4246 -15.38696,-2.08031 -21.03437,-3.79398 -21.85576,-6.63201 -39.28451,-18.75598 -51.71166,-35.97223 -9.6011,-13.30111 -15.06998,-27.88603 -17.1137798,-45.64063 -0.41404,-3.59676 -0.41568,-14.15962 -0.003,-17.72708 0.98391,-8.50053 2.8469398,-16.24432 5.7117898,-23.74144 9.75686,-25.532969 29.74848,-45.643479 55.3112,-55.640119 11.34575,-4.43691 21.39715,-6.56499 32.676044,-6.91816 11.46325,-0.35894 23.20087,1.50421 34.5335,5.48161 11.64569,4.08727 23.91315,11.37601 32.80295,19.48993 13.6649,12.47226 22.68685,26.503899 27.94923,43.468809 2.70254,8.71249 3.97798,17.12758 3.99013,26.32604 0.0363,27.46982 -10.90583,52.16411 -31.01352,69.99167 -15.63802,13.86473 -36.02974,22.61351 -57.0175,24.46253 -4.01738,0.35393 -11.48032,0.45936 -15.081254,0.21305 z m 1.717904,-22.50215 -0.002,-13.42761 -1.603574,-1.32291 c -0.88196,-0.72761 -1.86337,-1.456 -2.18092,-1.61866 -0.31754,-0.16266 -2.24422,-0.36229 -4.28151,-0.44363 -5.65443,-0.22573 -9.05772,-1.36108 -13.02916,-4.34659 -4.26008,-3.20248 -7.49866,-8.70432 -8.52089,-14.47565 -0.15294,-0.86347 -0.27807,-3.64725 -0.27807,-6.18618 v -4.61624 l 0.94291,0.15302 c 1.61135,0.26148 12.65057,3.58025 14.83873,4.46103 1.14275,0.45998 2.91117,1.32221 3.92982,1.91607 2.52582,1.47253 6.48675,5.45702 8.54982,8.60069 l 1.636634,2.49387 v -6.46563 -6.46562 l -4.299484,-4.25244 c -2.36471,-2.33885 -4.69556,-4.56992 -5.17967,-4.95793 l -0.8802,-0.70549 h -15.7599 -15.75991 l -4.92344,4.88319 -4.92344,4.88319 0.003,2.19441 c 0.002,1.63576 0.15355,2.58426 0.59531,3.7257 1.84669,4.77153 -0.90021,9.46721 -5.79798,9.91133 -2.07444,0.1881 -3.67847,-0.30822 -5.13248,-1.58809 -1.49938,-1.31981 -2.25588,-2.77774 -2.4263,-4.67599 -0.25073,-2.79287 0.95995,-5.18849 3.38349,-6.69504 l 1.30549,-0.81154 v -3.03136 -3.03136 l 1.83405,-1.89003 c 4.81201,-4.9589 11.74318,-11.71095 12.39153,-12.07131 0.62142,-0.34539 2.77443,-0.40464 15.27546,-0.42042 8.00365,-0.0101 14.81998,-0.0399 15.1474,-0.0661 0.51382,-0.0412 0.59531,-0.19774 0.59531,-1.14336 0,-1.04797 -0.12224,-1.21181 -2.81303,-3.77031 -1.54717,-1.4711 -3.09761,-2.82874 -3.44544,-3.01698 -0.50438,-0.27296 -4.45688,-0.32652 -19.52311,-0.26458 l -18.89071,0.0777 -0.61646,0.5778 c -1.16607,1.09295 -3.3962,1.93037 -5.14821,1.93316 -1.98162,0.003 -3.21966,-0.4868 -4.71655,-1.86658 -1.66372,-1.53356 -2.36732,-3.33513 -2.17915,-5.57967 0.17487,-2.0859 0.62473,-3.05837 2.05836,-4.44966 1.23198,-1.1956 2.96786,-1.86043 4.85217,-1.85836 1.94995,0.002 3.12948,0.40967 4.6388,1.60272 l 1.33716,1.05697 3.50382,-0.0738 3.50381,-0.0738 -7.59584,-7.54062 c -4.17771,-4.14734 -8.133,-8.04444 -8.78952,-8.6602 -1.81532,-1.70264 -2.38743,-2.98653 -2.38963,-5.36272 -0.002,-2.27838 0.42884,-3.38636 1.91061,-4.91208 1.36714,-1.4077 3.0031,-2.06705 5.09042,-2.05164 4.91713,0.0363 7.91986,4.25797 6.60866,9.29134 l -0.36511,1.40157 9.11521,8.96917 9.1152,8.96917 10.7229,0.0142 c 9.60265,0.0127 10.79124,0.0607 11.37708,0.45977 0.3598,0.24508 2.99849,2.69298 5.86376,5.43977 3.47524,3.33154 5.39105,5.36903 5.75469,6.12021 0.4338,0.89612 0.54511,1.64217 0.54511,3.65356 v 2.52749 l 2.4474,2.33879 2.447394,2.33878 0.07,-8.98471 0.07,-8.98471 -11.350024,-11.24479 c -7.32943,-7.26148 -11.50156,-11.587 -11.77781,-12.21082 -0.38004,-0.85821 -0.42779,-2.93241 -0.42779,-18.58366 V 95.019881 l -0.99219,-0.63312 c -1.37627,-0.87821 -2.06233,-1.67972 -2.73027,-3.18971 -2.0652,-4.66874 1.26254,-9.67018 6.46066,-9.71007 2.78288,-0.0214 4.82907,1.13735 6.0857,3.44618 0.97575,1.79277 1.16616,3.70109 0.57217,5.73429 -0.41529,1.42152 -0.45592,3.23171 -0.43582,19.418119 l 0.0222,17.85045 5.7614,5.78127 c 3.16877,3.17969 6.446,6.38041 7.28275,7.1127 l 1.521354,1.33144 v -15.32329 -15.32329 l -1.083144,-0.60877 c -1.70481,-0.95815 -4.0555,-3.43396 -4.95809,-5.22198 -3.16375,-6.267359 -0.0156,-14.156679 6.571674,-16.468699 5.87338,-2.06146 11.96711,0.38251 14.68982,5.89155 2.79703,5.659409 0.93479,12.061779 -4.50826,15.499369 l -1.71616,1.08386 v 15.34174 c 0,8.43795 0.0921,15.34173 0.20474,15.34173 0.1126,0 3.50588,-3.30888 7.54062,-7.35308 l 7.33589,-7.35308 -1.4e-4,-17.58389 c -1.3e-4,-17.236569 -0.0111,-17.612649 -0.55687,-19.039109 -0.97423,-2.54647 -0.22333,-6.10425 1.65859,-7.85843 1.09086,-1.01681 3.02442,-1.70554 4.81723,-1.71589 4.06407,-0.0234 7.02579,2.85631 7.03996,6.84512 0.009,2.56316 -0.91867,4.35459 -3.04666,5.88279 l -1.18087,0.84804 -0.006,17.512199 c -0.006,16.83803 -0.0258,17.55633 -0.52585,18.65819 -0.34107,0.75158 -1.86563,2.48171 -4.42979,5.02708 -2.15036,2.13461 -7.27154,7.21035 -11.38039,11.27943 l -7.47065,7.39832 v 8.9397 c 0,4.91683 0.0971,8.93969 0.21584,8.93969 0.11871,0 1.30934,-1.11505 2.64583,-2.4779 l 2.42999,-2.4779 v -2.42539 c 0,-1.57913 0.14193,-2.76861 0.40676,-3.40907 0.4197,-1.01498 10.06378,-10.73713 11.63178,-11.72595 0.74483,-0.4697 1.45533,-0.50062 11.52733,-0.50154 l 10.73358,-9.9e-4 9.1852,-9.06198 9.18519,-9.06198 -0.40575,-1.29882 c -0.84886,-2.71718 -0.24622,-5.11423 1.79892,-7.15547 2.93754,-2.93193 7.37113,-2.85763 10.09244,0.16912 2.06629,2.29821 2.4773,5.18481 1.10971,7.79366 -0.35914,0.68509 -3.92815,4.35531 -9.51963,9.78958 l -8.9451,8.69359 3.59969,0.0737 3.59969,0.0737 1.13507,-0.9301 c 1.46845,-1.20328 3.0093,-1.73224 5.02495,-1.72502 3.89418,0.014 6.77975,2.9088 6.77975,6.80151 0,2.91501 -1.18438,4.85635 -3.74273,6.13477 -2.7774,1.38788 -5.5372,1.09949 -7.9775,-0.83365 l -1.09023,-0.86365 -19.1116,-0.0798 -19.1116,-0.0798 -3.19046,2.98859 c -3.10966,2.91292 -3.19046,3.01712 -3.19046,4.11467 v 1.12607 l 4.43177,0.0623 c 2.43748,0.0343 9.2548,0.064 15.14961,0.0662 10.25935,0.004 10.75357,0.0265 11.5534,0.53301 1.17514,0.74422 13.20264,12.63486 13.84352,13.68599 0.4397,0.72118 0.52822,1.33489 0.52904,3.6679 9.6e-4,2.715 0.0211,2.81093 0.64825,3.09671 2.22596,1.01421 3.90358,3.78323 3.90358,6.44312 0,4.95352 -5.43047,8.33879 -9.97479,6.21813 -1.46187,-0.68219 -3.15702,-2.39278 -3.72988,-3.76382 -0.60342,-1.4442 -0.47111,-3.98682 0.29288,-5.62795 0.53503,-1.14932 0.65887,-1.82692 0.65887,-3.60522 v -2.1899 l -5.0358,-4.92758 -5.03581,-4.92759 h -15.87832 -15.87833 l -3.75826,3.60462 c -2.06705,1.98254 -4.38335,4.23426 -5.14733,5.00382 l -1.38906,1.3992 v 6.37326 c 0,4.20175 0.093,6.37327 0.27288,6.37327 0.15009,0 0.35024,-0.20836 0.44479,-0.46302 0.36805,-0.9914 3.20884,-4.79129 4.96971,-6.64759 2.9933,-3.15552 5.55686,-4.78008 10.05532,-6.37219 2.82502,-0.99983 13.26752,-3.9797 13.94629,-3.9797 0.43561,0 0.47334,0.34411 0.47151,4.29948 -0.002,4.88299 -0.24567,6.83937 -1.22616,9.85573 -1.96326,6.03972 -5.77443,10.65679 -10.82467,13.11365 -3.09669,1.50649 -5.7017,2.10547 -9.90759,2.27809 -3.99497,0.16397 -4.56554,0.36634 -6.94531,2.46345 l -1.25677,1.10749 v 13.33897 13.33897 h 0.9938 c 1.73228,0 7.53747,-0.75586 11.20741,-1.45925 17.59434,-3.37217 34.25183,-12.15753 46.64704,-24.60221 13.91887,-13.9744 21.84414,-30.80041 24.00187,-50.95796 0.40861,-3.81729 0.39987,-12.74471 -0.016,-16.37849 -1.47403,-12.87854 -6.34147,-26.52593 -13.14866,-36.86634 -7.37149,-11.197609 -15.13539,-18.981329 -26.42605,-26.493509 -9.77118,-6.5012 -21.07874,-11.0258 -33.04935,-13.22435 -3.59366,-0.66002 -9.8616,-1.37533 -10.0859,-1.15103 -0.0706,0.0706 0.0603,0.9639 0.29087,1.98506 0.32476,1.43806 0.3558,2.08878 0.13768,2.88623 -0.70198,2.56645 -2.4542,3.9202 -5.05059,3.90202 -2.431,-0.017 -4.05588,-1.28644 -4.778934,-3.73349 -0.26942,-0.91181 -0.26621,-1.47749 0.0169,-2.97796 0.192234,-1.01878 0.277284,-1.92456 0.189014,-2.01283 -0.292884,-0.29288 -8.828894,0.93189 -13.105714,1.88043 -37.70116,8.36167 -66.12168,40.158299 -69.12978,77.341829 -0.38114,4.71131 -0.16704,13.98141 0.42209,18.2757 2.88402,21.0223 13.45426,39.95679 29.63329,53.08217 11.457,9.29459 25.62069,15.99192 39.95208,18.8914 3.54321,0.71686 8.97112,1.47038 11.31094,1.57024 l 0.992184,0.0423 z m -40.479354,-6.96609 c -6.62566,-2.99571 -5.07769,-12.75016 2.12703,-13.40346 5.37397,-0.48729 9.295,5.01262 7.03451,9.86707 -1.55273,3.33451 -5.89818,5.01187 -9.16154,3.53639 z m 84.532444,-0.0555 c -2.3577,-1.12767 -3.82691,-3.26695 -4.02792,-5.86493 -0.51426,-6.64638 7.69019,-10.16366 12.16199,-5.2139 1.22531,1.35627 1.48093,1.85387 1.79028,3.48507 0.53928,2.8436 -0.84285,5.77089 -3.40938,7.22088 -1.99503,1.12712 -4.62351,1.27756 -6.51497,0.37288 z m -83.883374,-81.5017 c -2.06007,-0.79374 -3.61992,-2.31475 -4.33845,-4.23043 -0.50417,-1.34415 -0.33502,-3.88706 0.35748,-5.37431 0.34742,-0.74616 0.76298,-1.43779 0.92345,-1.53697 0.20171,-0.12467 0.29178,-2.53088 0.29178,-7.79516 v -7.61483 l -0.62889,-0.28654 c -2.11566,-0.96396 -3.65736,-3.44442 -3.65736,-5.88436 0,-4.29427 2.78701,-7.134549 7.00673,-7.140619 2.14838,-0.003 3.39967,0.46748 4.77642,1.796269 1.63983,1.58272 2.14802,2.78421 2.14878,5.08031 5e-4,1.49117 -0.14594,2.30509 -0.58918,3.27478 -0.56714,1.24075 -0.58983,1.58773 -0.58983,9.01769 v 7.7273 l 1.05106,0.84465 c 4.01697,3.22813 3.29303,9.46547 -1.36822,11.78826 -1.52208,0.75849 -3.89925,0.90594 -5.38377,0.33396 z m 84.140044,-0.0702 c -2.62748,-0.93291 -4.50232,-3.70465 -4.46915,-6.60715 0.0234,-2.04513 0.78285,-3.65861 2.44163,-5.18711 l 1.24361,-1.14594 0.0846,-7.64626 0.0846,-7.64625 -0.67992,-1.51506 c -1.65444,-3.68659 -0.27079,-7.83067 3.14573,-9.421609 1.92408,-0.89597 4.57124,-0.87293 6.43539,0.056 2.3632,1.177639 3.77036,3.474809 3.75027,6.122269 -0.0199,2.62633 -1.08686,4.63103 -3.13858,5.89726 l -1.06891,0.65968 -0.007,7.50939 c -0.007,7.00687 0.0276,7.56562 0.51215,8.34958 0.76847,1.24341 1.36813,3.80822 1.18268,5.05839 -0.36411,2.45445 -2.55923,5.03403 -4.81748,5.6612 -1.34992,0.3749 -3.41571,0.31143 -4.69951,-0.1444 z m -53.047764,62.44567 c -1.43286,-3.34272 -3.87681,-5.87347 -7.2674,-7.52551 -2.13811,-1.04179 -5.42396,-1.99351 -5.42396,-1.57102 0,0.126 0.2798,0.99992 0.62178,1.94205 1.88531,5.19398 5.94268,8.24845 11.07663,8.33869 l 1.51196,0.0266 z m 30.984324,0.69598 c 2.12494,-0.66135 4.16767,-2.07613 5.51025,-3.81637 1.21115,-1.56988 2.28497,-3.79112 2.55681,-5.28886 0.16664,-0.91812 0.13512,-1.00583 -0.31256,-0.86977 -5.15779,1.56749 -6.93554,2.49639 -9.06744,4.73782 -1.39236,1.4639 -1.92337,2.22352 -2.95741,4.23064 l -0.78378,1.52135 h 1.70003 c 0.94109,0 2.43845,-0.22982 3.3541,-0.51481 z m -15.07588,-97.50128 c 2.79911,-1.84362 2.2449,-6.213959 -0.94236,-7.431189 -4.09128,-1.56247 -7.703884,2.95025 -5.16619,6.453419 0.43747,0.60392 0.82442,1.09982 0.85989,1.10202 0.0355,0.002 0.54074,0.18094 1.12282,0.39722 1.33644,0.49658 2.8755,0.30206 4.12584,-0.52147 z"
       id="path1" /></g></svg>
