<?xml version="1.0" encoding="UTF-8" standalone="no"?>
<!-- Created with Inkscape (http://www.inkscape.org/) -->

<svg
   width="40.788918mm"
   height="5.4413342mm"
   viewBox="0 0 40.788918 5.4413342"
   version="1.1"
   id="svg5"
   xml:space="preserve"
   inkscape:version="1.3.2 (091e20e, 2023-11-25, custom)"
   sodipodi:docname="stickers.svg"
   inkscape:export-filename="/media/archo/SSD Storage/University/OpenSource UoM/fosscom24/designs/svg/EXPORT/stickers.pdf"
   inkscape:export-xdpi="96"
   inkscape:export-ydpi="96"
   xmlns:inkscape="http://www.inkscape.org/namespaces/inkscape"
   xmlns:sodipodi="http://sodipodi.sourceforge.net/DTD/sodipodi-0.dtd"
   xmlns="http://www.w3.org/2000/svg"
   xmlns:svg="http://www.w3.org/2000/svg"><sodipodi:namedview
     id="namedview7"
     pagecolor="#ffffff"
     bordercolor="#000000"
     borderopacity="0.25"
     inkscape:showpageshadow="2"
     inkscape:pageopacity="0.0"
     inkscape:pagecheckerboard="0"
     inkscape:deskcolor="#d1d1d1"
     inkscape:document-units="mm"
     showgrid="false"
     inkscape:zoom="0.3535534"
     inkscape:cx="2121.3203"
     inkscape:cy="1344.917"
     inkscape:window-width="1920"
     inkscape:window-height="991"
     inkscape:window-x="-9"
     inkscape:window-y="-9"
     inkscape:window-maximized="1"
     inkscape:current-layer="layer1"
     inkscape:pageshadow="2"
     width="211mm"><inkscape:page
       x="-1.2343957e-06"
       y="-2.4496369e-06"
       width="40.788918"
       height="5.4413342"
       id="page1"
       margin="0"
       bleed="0" /></sodipodi:namedview><defs
     id="defs2" /><g
     inkscape:label="Layer 1"
     inkscape:groupmode="layer"
     id="layer1"
     transform="translate(-352.5803,-774.71647)"><g
       id="g19"><path
         style="opacity:1;fill:#201a2c;stroke-width:2.065;stroke-linecap:square"
         d="m 352.58028,775.1248 v 4.73567 h 1.08746 v -3.07525 l 0.46771,0.43262 0.37417,-0.42095 v 3.08697 h 1.04069 v -4.96954 h -0.59635 l -0.79512,1.0173 -0.94713,-0.95882 z"
         id="path6" /><path
         style="opacity:1;fill:#201a2c;stroke-width:2.065;stroke-linecap:square"
         d="m 356.40391,775.04294 0.056,4.84092 h 0.99219 l -0.11576,-3.99328 h 0.79375 l 0.14883,3.99328 h 0.99219 l -0.0496,-4.96956 z"
         id="path7" /><path
         id="path8"
         style="opacity:1;fill:#201a2c;stroke-width:2.065;stroke-linecap:square"
         d="m 361.30508,774.71653 c -0.82682,0.1978 -1.05834,0.29765 -1.17409,0.87643 -0.11576,0.57877 -0.0661,1.36887 1.28984,1.5875 1.35599,0.21865 1.98437,-0.76067 1.81901,-1.33945 -0.16537,-0.57877 -0.87642,-1.12448 -1.93476,-1.12448 z m 0.3731,1.02526 a 0.39171687,0.22216778 0 0 1 0.39171,0.22221 0.39171687,0.22216778 0 0 1 -0.39171,0.22221 0.39171687,0.22216778 0 0 1 -0.39171,-0.22221 0.39171687,0.22216778 0 0 1 0.39171,-0.22221 z" /><path
         style="opacity:1;fill:#201a2c;stroke-width:2.065;stroke-linecap:square"
         d="m 360.19713,777.56077 -0.10665,2.59622 h 1.06577 v -1.32292 l 1.14101,1.27331 0.96848,-0.0164 v -2.53008 h -1.16692 v 0.74414 l -0.85989,-0.90583 -1.14845,-0.004 z"
         id="path9" /><path
         style="opacity:1;fill:#201a2c;stroke-width:2.065;stroke-linecap:square"
         d="m 364.08512,775.1248 v 4.73567 h 1.08746 v -3.07525 l 0.46771,0.43262 0.37417,-0.42095 v 3.08697 h 1.04069 v -4.96954 h -0.59635 l -0.79512,1.0173 -0.94713,-0.95882 z"
         id="path10" /><path
         style="opacity:1;fill:#201a2c;stroke-width:2.065;stroke-linecap:square"
         d="m 367.82044,775.12991 v 4.84518"
         id="path11" /><path
         style="opacity:1;fill:#201a2c;stroke-width:2.065;stroke-linecap:square"
         d="m 367.82044,775.12991 v 4.84518 h 0.9095 v -4.16719 h 0.97565 l 0.0827,4.16719 h 1.07487 l -0.0992,-4.84518 z"
         id="path12" /><path
         id="path13"
         style="opacity:1;fill:#201a2c;stroke-width:2.065;stroke-linecap:square"
         d="m 372.79792,774.91445 c -0.62838,0 -1.07488,0.34779 -1.09141,0.51315 v 3.81992 c 0,0 0.0331,0.94258 0.82682,0.90951 0.79375,-0.0331 1.00873,-0.72761 1.00873,-0.72761 v -3.93568 c 0,0 -0.11575,-0.57929 -0.74414,-0.57929 z m -0.0977,0.47956 c 0.13809,0 0.24908,0.11099 0.24908,0.24908 v 3.699 c 0,0.13809 -0.11099,0.2496 -0.24908,0.2496 -0.13809,0 -0.24908,-0.11151 -0.24908,-0.2496 v -3.699 c 0,-0.13809 0.11099,-0.24908 0.24908,-0.24908 z" /><path
         style="opacity:1;fill:#201a2c;stroke-width:2.065;stroke-linecap:square"
         d="m 374.36888,775.12991 0.0827,4.84518 h 0.85989 v -2.54662 l 1.20717,2.72937 h 0.77721 l -0.0331,-5.02793 h -1.0418 v 2.01744 l -0.92604,-2.01744 z"
         id="path14" /><path
         style="opacity:1;fill:#201a2c;stroke-width:2.065;stroke-linecap:square"
         d="m 378.30455,775.12991 h 2.82774 v 0.67799 h -1.73633 v 1.33945 h 1.50482 v 0.82683 h -1.52136 v 1.14101 h 1.73633 l 0.0164,1.04265 h -3.0427 z"
         id="path15" /><path
         style="opacity:1;fill:#201a2c;stroke-width:2.065;stroke-linecap:square"
         d="m 382.6371,775.12991 -0.71106,5.02793 h 0.9095 l 0.41341,-3.34121 0.69453,3.34121 h 1.55443 l -1.73633,-5.02793 z"
         id="path16" /><path
         style="opacity:1;fill:#201a2c;stroke-width:2.065;stroke-linecap:square"
         d="m 386.57278,775.39449 -0.67799,4.67982 h 1.22369 l 0.0992,-3.63802 0.72761,3.63802 1.4056,0.0835 -1.68672,-4.79642 z"
         id="path17" /><path
         id="path18"
         style="opacity:1;fill:#201a2c;stroke-width:2.065;stroke-linecap:square"
         d="m 391.29911,775.0576 c -0.59177,0.0204 -1.09812,0.5271 -1.36942,1.04799 -0.41341,0.79375 -0.0496,3.853 -0.0496,3.853 h 1.35599 l 0.0165,-1.85208 0.56224,-0.0331 0.0661,1.9017 1.48828,-0.0661 c 0,0 -0.11576,-3.47266 -1.09141,-4.41524 -0.33537,-0.32401 -0.66877,-0.44682 -0.97875,-0.43614 z m 0.1757,1.36064 c 0.025,-6.6e-4 0.0506,0.015 0.076,0.0512 0.23177,0.33073 0.19792,1.04644 0.19792,1.04644 h -0.66146 c 0,0 0.18367,-1.09225 0.38757,-1.0976 z" /></g></g></svg>
